<svg width="18" height="18" viewBox="0 0 18 18" fill="none" xmlns="http://www.w3.org/2000/svg">
<path d="M5.75 17.5024H2.75C2.40324 17.5171 2.05697 17.4634 1.73101 17.3442C1.40505 17.2249 1.1058 17.0426 0.850377 16.8076C0.594953 16.5726 0.388372 16.2896 0.242455 15.9747C0.0965377 15.6598 0.0141479 15.3192 0 14.9724V2.53239C0.0141479 2.1856 0.0965377 1.845 0.242455 1.53009C0.388372 1.21518 0.594953 0.932132 0.850377 0.697142C1.1058 0.462153 1.40505 0.279834 1.73101 0.16062C2.05697 0.0414057 2.40324 -0.0123648 2.75 0.0023852H5.75C5.94891 0.0023852 6.13968 0.0814027 6.28033 0.222055C6.42098 0.362707 6.5 0.553473 6.5 0.752385C6.5 0.951298 6.42098 1.14206 6.28033 1.28272C6.13968 1.42337 5.94891 1.50239 5.75 1.50239H2.75C2.45307 1.47657 2.1576 1.56603 1.92487 1.75222C1.69213 1.93841 1.53999 2.20703 1.5 2.50239V14.9724C1.53999 15.2677 1.69213 15.5364 1.92487 15.7226C2.1576 15.9087 2.45307 15.9982 2.75 15.9724H5.75C5.94891 15.9724 6.13968 16.0514 6.28033 16.1921C6.42098 16.3327 6.5 16.5235 6.5 16.7224C6.5 16.9213 6.42098 17.1121 6.28033 17.2527C6.13968 17.3934 5.94891 17.4724 5.75 17.4724V17.5024Z" fill="white"></path>
<path d="M12.7502 13.5024C12.6516 13.5028 12.554 13.4836 12.463 13.4458C12.3719 13.408 12.2894 13.3525 12.2202 13.2824C12.0797 13.1417 12.0008 12.9511 12.0008 12.7524C12.0008 12.5536 12.0797 12.363 12.2202 12.2224L15.6902 8.75235L12.2202 5.28235C12.1465 5.21369 12.0874 5.13089 12.0464 5.03889C12.0054 4.94689 11.9833 4.84758 11.9816 4.74687C11.9798 4.64617 11.9983 4.54614 12.036 4.45275C12.0738 4.35936 12.1299 4.27453 12.2011 4.20331C12.2723 4.13209 12.3572 4.07595 12.4506 4.03823C12.5439 4.00051 12.644 3.98198 12.7447 3.98376C12.8454 3.98554 12.9447 4.00758 13.0367 4.04857C13.1287 4.08956 13.2115 4.14866 13.2802 4.22235L17.2802 8.22235C17.4206 8.36298 17.4995 8.5536 17.4995 8.75235C17.4995 8.9511 17.4206 9.14173 17.2802 9.28235L13.2802 13.2824C13.2109 13.3525 13.1284 13.408 13.0373 13.4458C12.9463 13.4836 12.8487 13.5028 12.7502 13.5024Z" fill="white"></path>
<path d="M16.75 9.50244H5.75C5.55109 9.50244 5.36032 9.42342 5.21967 9.28277C5.07902 9.14212 5 8.95135 5 8.75244C5 8.55353 5.07902 8.36276 5.21967 8.22211C5.36032 8.08146 5.55109 8.00244 5.75 8.00244H16.75C16.9489 8.00244 17.1397 8.08146 17.2803 8.22211C17.421 8.36276 17.5 8.55353 17.5 8.75244C17.5 8.95135 17.421 9.14212 17.2803 9.28277C17.1397 9.42342 16.9489 9.50244 16.75 9.50244Z" fill="white"></path>
</svg>